# xmcd
#
# Track frame offsets:
#	150
#	18266
#	34513
#	51373
#	71818
#	86295
#	106305
#	129030
#	150323
#	169487
#	187897
#	199990
#	219175
#	234540
#	248281
#	267922
#
# Disc length: 3825 seconds
#
# Revision: 0
# Processed by: cddbd v1.5.2PL0 Copyright (c) Steve Scherf et al.
# Submitted via: dBpowerAMP V4.0
#
DISCID=c60eef10
DTITLE=Matizes - A Deus Eu Peço
DYEAR=1900
DGENRE=
TTITLE0=VamoPegaPraCapá
TTITLE1=SeTuTeVai
TTITLE2=Fandangueirona
TTITLE3=Decida
TTITLE4=Ela é Demais
TTITLE5=EstavaEscrito
TTITLE6=Caminhoneiro
TTITLE7=QueEuNãoMePerca
TTITLE8=DuasVidas
TTITLE9=BatendoMatraca
TTITLE10=A DeusEuPeço
TTITLE11=EvaMeuAmor
TTITLE12=RioGrandeMinhaPaixão
TTITLE13=BaileCampeiro
TTITLE14=TocaSeuGaiteiro
TTITLE15=Pout-Porri
EXTD=Gauchescas
EXTT0=
EXTT1=
EXTT2=
EXTT3=
EXTT4=
EXTT5=
EXTT6=
EXTT7=
EXTT8=
EXTT9=
EXTT10=
EXTT11=
EXTT12=
EXTT13=
EXTT14=
EXTT15=
PLAYORDER=
